<?xml version="1.0" encoding="utf-8"?>
<!-- Generator: Adobe Illustrator 25.3.1, SVG Export Plug-In . SVG Version: 6.00 Build 0)  -->
<svg version="1.1" id="LANCE" xmlns="http://www.w3.org/2000/svg" xmlns:xlink="http://www.w3.org/1999/xlink" x="0px" y="0px"
	 viewBox="0 0 435.111 72.889" enable-background="new 0 0 435.111 72.889" xml:space="preserve">
<g>
	<g>
		<g>
			<path fill="#E3AA38" d="M32.045,38.381h-7.751c-4.635,0-6.952,2.317-6.952,6.952v13.903H6.914V45.333
				c0-9.27,5.793-13.904,17.38-13.904h31.283c4.635,0,6.952-2.316,6.952-6.952c0-4.634-2.317-6.951-6.952-6.951H6.914v-6.952h48.663
				c11.586,0,17.38,4.635,17.38,13.903c0,9.27-5.794,13.904-17.38,13.904H47.86l25.097,20.855H57.802L32.045,38.381z"/>
			<path fill="#E3AA38" d="M84.253,34.905c-2.896-2.317-4.345-5.793-4.345-10.429c0-9.269,5.793-13.903,17.38-13.903h55.614v6.952
				H97.288c-4.635,0-6.952,2.317-6.952,6.951c0,4.636,2.317,6.952,6.952,6.952h55.614v6.952H97.288
				c-4.635,0-6.952,2.317-6.952,6.952s2.317,6.951,6.952,6.951h55.614v6.952H97.288c-11.587,0-17.38-4.635-17.38-13.903
				C79.908,40.698,81.356,37.223,84.253,34.905z"/>
			<path fill="#E3AA38" d="M173.842,10.573v48.663h-10.428V10.573H173.842z"/>
			<path fill="#E3AA38" d="M273.428,34.905c-2.896-2.317-4.345-5.793-4.345-10.429c0-9.269,5.793-13.903,17.38-13.903h55.614v6.952
				h-55.614c-4.635,0-6.952,2.317-6.952,6.951c0,4.636,2.317,6.952,6.952,6.952h55.614v6.952h-55.614
				c-4.635,0-6.952,2.317-6.952,6.952s2.317,6.951,6.952,6.951h55.614v6.952h-55.614c-11.587,0-17.38-4.635-17.38-13.903
				C269.083,40.698,270.531,37.223,273.428,34.905z"/>
			<path fill="#E3AA38" d="M387.264,38.381l-26.383-15.989c-0.95-0.417-1.425,0.278-1.425,2.085v34.76h-10.428V14.049
				c0-2.316,1.158-3.476,3.476-3.476c0.835,0,1.993,0.476,3.477,1.425l31.283,19.431l26.382,15.989
				c0.95,0.417,1.426-0.278,1.426-2.085v-34.76H425.5v45.188c0,2.317-1.159,3.476-3.477,3.476c-0.834,0-1.993-0.475-3.476-1.425
				L387.264,38.381z"/>
		</g>
	</g>
	<path fill="#E3AA38" d="M192.209,10.591v6.944h36.174c0,0,7.036-0.405,12.329,1.111c2.969,0.847,4.3,2.724,2.92,4.77
		c-4.702,6.986-55.005,26.852-58.295,28.678c0,2.852,0.036,3.711,0,7.169c4.989,0,71.517-0.114,71.517-0.114v-7.056H203.84
		c0,0,23.599-8.869,43.925-20.956c4.734-2.817,7.374-4.926,7.374-9.468c0-12.024-11.296-11.079-17.264-11.079
		C231.91,10.591,192.209,10.591,192.209,10.591z"/>
</g>
</svg>
