<svg width="127" height="31" viewBox="0 0 127 31" fill="none" xmlns="http://www.w3.org/2000/svg">
<path d="M0.875 30V0.90909H21.3295V7.27273H8.77273V12.2727H20.0795V18.6364H8.77273V30H0.875ZM29.7584 30H21.2357L30.8379 0.90909H41.6334L51.2357 30H42.7129L36.3493 8.92045H36.122L29.7584 30ZM28.1675 18.5227H44.1902V24.4318H28.1675V18.5227ZM80.808 0.90909V30H74.217L63.7057 14.7159H63.5352V30H55.6375V0.90909H62.342L72.683 16.1364H72.9102V0.90909H80.808ZM105.036 10.5114C104.913 10.0095 104.719 9.56913 104.453 9.19034C104.188 8.80208 103.857 8.47538 103.459 8.21023C103.071 7.93561 102.616 7.73201 102.095 7.59943C101.584 7.45739 101.021 7.38636 100.405 7.38636C99.0794 7.38636 97.9477 7.7036 97.0102 8.33807C96.0822 8.97254 95.372 9.88636 94.8795 11.0795C94.3966 12.2727 94.1551 13.7121 94.1551 15.3977C94.1551 17.1023 94.3871 18.5606 94.8511 19.7727C95.3152 20.9848 96.0064 21.9129 96.925 22.5568C97.8436 23.2008 98.9847 23.5227 100.348 23.5227C101.551 23.5227 102.55 23.3475 103.345 22.9972C104.15 22.6468 104.752 22.1496 105.149 21.5057C105.547 20.8617 105.746 20.1042 105.746 19.233L107.11 19.375H100.462V13.75H113.36V17.7841C113.36 20.4356 112.796 22.7036 111.669 24.5881C110.552 26.4631 109.008 27.9025 107.039 28.9062C105.078 29.9006 102.829 30.3977 100.291 30.3977C97.46 30.3977 94.9742 29.7964 92.8341 28.5938C90.6939 27.3911 89.0225 25.6771 87.8199 23.4517C86.6267 21.2263 86.0301 18.5795 86.0301 15.5114C86.0301 13.1061 86.3947 10.9754 87.1239 9.11932C87.8625 7.26326 88.8852 5.69602 90.192 4.41761C91.4989 3.12973 93.0093 2.15909 94.7233 1.50568C96.4373 0.842802 98.2744 0.511363 100.235 0.511363C101.958 0.511363 103.559 0.757575 105.036 1.25C106.523 1.73295 107.834 2.42424 108.97 3.32386C110.116 4.21401 111.04 5.26989 111.74 6.49148C112.441 7.71307 112.867 9.05303 113.019 10.5114H105.036ZM123.017 30.4545C121.919 30.4545 120.976 30.071 120.19 29.304C119.414 28.5275 119.03 27.5852 119.04 26.4773C119.03 25.3977 119.414 24.4744 120.19 23.7074C120.976 22.9403 121.919 22.5568 123.017 22.5568C124.059 22.5568 124.977 22.9403 125.773 23.7074C126.578 24.4744 126.985 25.3977 126.994 26.4773C126.985 27.2159 126.791 27.8883 126.412 28.4943C126.043 29.0909 125.56 29.5691 124.963 29.929C124.367 30.2794 123.718 30.4545 123.017 30.4545Z" fill="#FAFAFA"/>
</svg>
